<?xml version="1.0" encoding="UTF-8" standalone="no"?>
<!-- Created with Inkscape (http://www.inkscape.org/) -->

<svg
   width="66.495934mm"
   height="81.594078mm"
   viewBox="0 0 66.495934 81.594078"
   version="1.1"
   id="svg1"
   inkscape:version="1.3.2 (091e20ef0f, 2023-11-25)"
   sodipodi:docname="atm-new.svg"
   xml:space="preserve"
   xmlns:inkscape="http://www.inkscape.org/namespaces/inkscape"
   xmlns:sodipodi="http://sodipodi.sourceforge.net/DTD/sodipodi-0.dtd"
   xmlns="http://www.w3.org/2000/svg"
   xmlns:svg="http://www.w3.org/2000/svg"><sodipodi:namedview
     id="namedview1"
     pagecolor="#ffffff"
     bordercolor="#000000"
     borderopacity="0.25"
     inkscape:showpageshadow="2"
     inkscape:pageopacity="0.0"
     inkscape:pagecheckerboard="0"
     inkscape:deskcolor="#d1d1d1"
     inkscape:document-units="mm"
     inkscape:zoom="1.8797057"
     inkscape:cx="39.101866"
     inkscape:cy="146.2995"
     inkscape:window-width="1920"
     inkscape:window-height="952"
     inkscape:window-x="0"
     inkscape:window-y="0"
     inkscape:window-maximized="1"
     inkscape:current-layer="layer1" /><defs
     id="defs1"><inkscape:path-effect
       effect="bspline"
       id="path-effect5"
       is_visible="true"
       lpeversion="1.3"
       weight="33.333333"
       steps="2"
       helper_size="0"
       apply_no_weight="true"
       apply_with_weight="true"
       only_selected="false"
       uniform="false" /><inkscape:path-effect
       effect="bspline"
       id="path-effect4"
       is_visible="true"
       lpeversion="1.3"
       weight="33.333333"
       steps="2"
       helper_size="0"
       apply_no_weight="true"
       apply_with_weight="true"
       only_selected="false"
       uniform="false" /></defs><g
     inkscape:label="Layer 1"
     inkscape:groupmode="layer"
     id="layer1"
     transform="translate(-61.937716,-89.406672)"><path
       id="path2"
       style="fill:#168118;fill-opacity:1;stroke:none;stroke-width:2.46091;stroke-miterlimit:11.1"
       d="M 95.185913,89.406672 A 33.247964,33.247964 0 0 0 61.937716,122.65441 33.247964,33.247964 0 0 0 95.185913,155.90261 33.247964,33.247964 0 0 0 128.43365,122.65441 33.247964,33.247964 0 0 0 95.185913,89.406672 Z" /><path
       style="fill:#168118;fill-opacity:1;stroke:none;stroke-width:2.769;stroke-miterlimit:11.1"
       d="m 66.798454,139.96339 c 9.462411,15.51884 18.924628,31.03736 28.387228,31.03736 9.462598,0 18.924818,-15.51853 28.387228,-31.03736"
       id="path4"
       inkscape:path-effect="#path-effect5"
       inkscape:original-d="m 66.798454,139.96339 c 9.46241,15.51884 18.924628,31.03736 28.387229,46.55651 9.462597,-15.51915 18.924817,-31.03768 28.387227,-46.55651"
       sodipodi:nodetypes="ccc" /><ellipse
       style="fill:#ffffff;fill-opacity:1;stroke:none;stroke-width:2.769;stroke-miterlimit:11.1"
       id="path1"
       cx="95.185684"
       cy="122.65464"
       rx="26.518745"
       ry="25.845358" /><g
       style="fill:#168118;fill-opacity:1"
       id="g2"
       transform="matrix(1.2287607,0,0,1.2287607,75.912571,103.38091)"><g
         id="g1"
         style="fill:#168118;fill-opacity:1">
	<path
   d="m 24.26,20.34 c 0,3.42 -2.423,6.342 -6.845,7.111 v 3.92 H 13.647 V 27.723 C 11.069,27.606 8.571,26.912 7.11,26.069 l 1.154,-4.5 c 1.615,0.886 3.883,1.693 6.383,1.693 2.191,0 3.691,-0.848 3.691,-2.385 0,-1.461 -1.23,-2.389 -4.077,-3.348 C 10.149,16.144 7.34,14.223 7.34,10.496 7.34,7.11 9.725,4.461 13.839,3.651 V 0 h 3.767 v 3.383 c 2.576,0.115 4.309,0.652 5.576,1.268 L 22.067,8.999 C 21.07,8.575 19.3,7.688 16.531,7.688 c -2.5,0 -3.307,1.076 -3.307,2.154 0,1.268 1.346,2.074 4.613,3.307 4.579,1.613 6.423,3.728 6.423,7.191 z"
   id="path1-9"
   style="fill:#168118;fill-opacity:1" />
</g></g></g></svg>
