<?xml version="1.0" encoding="UTF-8" standalone="no"?>
<!-- Generator: Adobe Illustrator 19.1.0, SVG Export Plug-In . SVG Version: 6.00 Build 0)  -->

<svg
   version="1.1"
   id="Capa_1"
   x="0px"
   y="0px"
   viewBox="0 0 639.623 639.623"
   style="enable-background:new 0 0 639.623 639.623;"
   xml:space="preserve"
   sodipodi:docname="atm.svg"
   inkscape:version="1.3 (0e150ed6c4, 2023-07-21)"
   xmlns:inkscape="http://www.inkscape.org/namespaces/inkscape"
   xmlns:sodipodi="http://sodipodi.sourceforge.net/DTD/sodipodi-0.dtd"
   xmlns="http://www.w3.org/2000/svg"
   xmlns:svg="http://www.w3.org/2000/svg"><defs
   id="defs908" /><sodipodi:namedview
   id="namedview906"
   pagecolor="#ffffff"
   bordercolor="#111111"
   borderopacity="1"
   inkscape:pageshadow="0"
   inkscape:pageopacity="0"
   inkscape:pagecheckerboard="1"
   showgrid="false"
   inkscape:zoom="1"
   inkscape:cx="306.5"
   inkscape:cy="357.5"
   inkscape:window-width="1920"
   inkscape:window-height="1043"
   inkscape:window-x="0"
   inkscape:window-y="0"
   inkscape:window-maximized="1"
   inkscape:current-layer="g869"
   inkscape:snap-smooth-nodes="true"
   inkscape:snap-intersection-paths="true"
   inkscape:snap-object-midpoints="true"
   inkscape:showpageshadow="2"
   inkscape:deskcolor="#d1d1d1" />&#10;<g
   id="g873">&#10;	<g
   id="g871">&#10;		<g
   id="g869">&#10;			<path
   style="mix-blend-mode:multiply;fill:#000000;fill-opacity:1"
   d="m 521.321,201.451 c 0,111.321 -201.471,438.172 -201.471,438.172 0,0 -201.548,-326.86 -201.548,-438.172 C 118.302,90.208 208.51,0 319.851,0 c 111.272,-0.01 201.47,90.198 201.47,201.451 z m -45.597,-0.01 c 0,-85.968 -69.945,-155.893 -155.883,-155.893 -86.017,0 -155.961,69.935 -155.961,155.893 0,85.997 69.945,155.912 155.961,155.912 85.948,10e-4 155.883,-69.915 155.883,-155.912 z"
   id="path867"
   sodipodi:nodetypes="scscsssscs" />&#10;		<g
   style="fill:none"
   id="g1"
   transform="matrix(10.275485,0,0,10.275485,196.50567,74.343001)"><path
     fill-rule="evenodd"
     clip-rule="evenodd"
     d="M 12,1 C 11.4477,1 11,1.44772 11,2 V 3 H 10 C 8.3642,3 7.0588,3.60369 6.1691,4.57428 5.29413,5.52878 4.875,6.77845 4.875,8 c 0,1.22155 0.41913,2.4712 1.2941,3.4257 0.16425,0.1792 0.34267,0.3459 0.53472,0.4986 C 7.55205,12.5986 8.6662,13 10,13 h 1 v 6 H 10 C 9.17499,19 8.62271,18.7966 8.2422,18.5429 7.85544,18.2851 7.58511,17.9342 7.39443,17.5528 7.20178,17.1675 7.10048,16.7701 7.04889,16.4606 7.02329,16.307 7.00411,16.1512 6.99999,15.9953 6.99736,15.4454 6.55059,15 6,15 c -0.55229,0 -1,0.4477 -1,1 3e-5,0.0672 0.0024,0.1317 0.01035,0.2431 0.00971,0.136 0.02865,0.3237 0.06576,0.5463 0.07341,0.4405 0.2221,1.0431 0.52946,1.6578 0.30932,0.6186 0.78899,1.2677 1.52723,1.7599 C 7.8773,20.7034 8.82502,21 10,21 h 1 v 1 c 0,0.5523 0.4477,1 1,1 0.5523,0 1,-0.4477 1,-1 v -1 h 1 c 1.6358,0 2.9412,-0.6037 3.8309,-1.5743 0.875,-0.9545 1.2941,-2.2041 1.2941,-3.4257 0,-1.2216 -0.4191,-2.4712 -1.2941,-3.4257 C 16.9412,11.6037 15.6358,11 14,11 H 13 V 5 h 1 c 0.825,0 1.3773,0.20338 1.7578,0.45705 0.3868,0.25784 0.6571,0.60879 0.8478,0.99016 0.1926,0.38529 0.2939,0.78268 0.3455,1.09219 C 16.9767,7.69303 16.9959,7.84879 17,8.00465 17.0027,8.55467 17.4494,9 18,9 18.5458,9 19,8.54436 19,7.99898 18.9999,7.93212 18.9976,7.8677 18.9896,7.75688 18.9799,7.62092 18.961,7.43322 18.9239,7.2106 18.8505,6.77011 18.7018,6.1675 18.3944,5.55279 18.0851,4.93416 17.6054,4.28511 16.8672,3.79295 16.1227,3.29662 15.175,3 14,3 H 13 V 2 C 13,1.44772 12.5523,1 12,1 Z M 11,5 H 10 C 8.8858,5 8.1287,5.39631 7.6434,5.92572 7.14337,6.47122 6.875,7.22155 6.875,8 c 0,0.77845 0.26837,1.52878 0.7684,2.0743 C 8.1287,10.6037 8.8858,11 10,11 h 1 z m 2,8 v 6 h 1 c 1.1142,0 1.8713,-0.3963 2.3566,-0.9257 0.5,-0.5455 0.7684,-1.2959 0.7684,-2.0743 0,-0.7784 -0.2684,-1.5288 -0.7684,-2.0743 C 15.8713,13.3963 15.1142,13 14,13 Z"
     fill="#0f0f0f"
     id="path1" /></g></g>&#10;	</g>&#10;</g>&#10;<g
   id="g875">&#10;</g>&#10;<g
   id="g877">&#10;</g>&#10;<g
   id="g879">&#10;</g>&#10;<g
   id="g881">&#10;</g>&#10;<g
   id="g883">&#10;</g>&#10;<g
   id="g885">&#10;</g>&#10;<g
   id="g887">&#10;</g>&#10;<g
   id="g889">&#10;</g>&#10;<g
   id="g891">&#10;</g>&#10;<g
   id="g893">&#10;</g>&#10;<g
   id="g895">&#10;</g>&#10;<g
   id="g897">&#10;</g>&#10;<g
   id="g899">&#10;</g>&#10;<g
   id="g901">&#10;</g>&#10;<g
   id="g903">&#10;</g>&#10;</svg>
