<?xml version="1.0" encoding="UTF-8" standalone="no"?>
<!-- Generator: Adobe Illustrator 19.1.0, SVG Export Plug-In . SVG Version: 6.00 Build 0)  -->

<svg
   version="1.1"
   id="Capa_1"
   x="0px"
   y="0px"
   viewBox="0 0 639.623 639.623"
   style="enable-background:new 0 0 639.623 639.623;"
   xml:space="preserve"
   sodipodi:docname="bike-station.svg"
   inkscape:version="1.2.2 (b0a8486541, 2022-12-01)"
   xmlns:inkscape="http://www.inkscape.org/namespaces/inkscape"
   xmlns:sodipodi="http://sodipodi.sourceforge.net/DTD/sodipodi-0.dtd"
   xmlns="http://www.w3.org/2000/svg"
   xmlns:svg="http://www.w3.org/2000/svg"><defs
   id="defs908" /><sodipodi:namedview
   id="namedview906"
   pagecolor="#ffffff"
   bordercolor="#111111"
   borderopacity="1"
   inkscape:pageshadow="0"
   inkscape:pageopacity="0"
   inkscape:pagecheckerboard="1"
   showgrid="false"
   inkscape:zoom="1"
   inkscape:cx="306.5"
   inkscape:cy="357.5"
   inkscape:window-width="1920"
   inkscape:window-height="948"
   inkscape:window-x="0"
   inkscape:window-y="0"
   inkscape:window-maximized="1"
   inkscape:current-layer="g869"
   inkscape:snap-smooth-nodes="true"
   inkscape:snap-intersection-paths="true"
   inkscape:snap-object-midpoints="true"
   inkscape:showpageshadow="2"
   inkscape:deskcolor="#d1d1d1" />
<g
   id="g873">
	<g
   id="g871">
		<g
   id="g869">
			<path
   style="mix-blend-mode:multiply;fill:#000000;fill-opacity:1"
   d="m 521.321,201.451 c 0,111.321 -201.471,438.172 -201.471,438.172 0,0 -201.548,-326.86 -201.548,-438.172 C 118.302,90.208 208.51,0 319.851,0 c 111.272,-0.01 201.47,90.198 201.47,201.451 z m -45.597,-0.01 c 0,-85.968 -69.945,-155.893 -155.883,-155.893 -86.017,0 -155.961,69.935 -155.961,155.893 0,85.997 69.945,155.912 155.961,155.912 85.948,10e-4 155.883,-69.915 155.883,-155.912 z"
   id="path867"
   sodipodi:nodetypes="scscsssscs" />
		<g
   id="g266"
   transform="matrix(0.46911191,0,0,0.46911191,199.71562,67.33422)"><path
     d="m 388,288 a 76,76 0 1 0 76,76 76.24,76.24 0 0 0 -76,-76 z m -264,0 a 76,76 0 1 0 76,76 76.24,76.24 0 0 0 -76,-76 z"
     fill="none"
     stroke="currentColor"
     stroke-miterlimit="10"
     stroke-width="32"
     id="path251" /><path
     fill="none"
     stroke="currentColor"
     stroke-linecap="round"
     stroke-linejoin="round"
     stroke-width="32"
     d="m 256,360 v -86 l -64,-42 80,-88 40,72 h 56"
     id="path253" /><path
     d="M 320,136 A 31.89,31.89 0 0 0 352,103.9 31.55,31.55 0 0 0 320.2,72 32.000156,32.000156 0 1 0 320,136 Z"
     id="path255" /></g></g>
	</g>
</g>
<g
   id="g875">
</g>
<g
   id="g877">
</g>
<g
   id="g879">
</g>
<g
   id="g881">
</g>
<g
   id="g883">
</g>
<g
   id="g885">
</g>
<g
   id="g887">
</g>
<g
   id="g889">
</g>
<g
   id="g891">
</g>
<g
   id="g893">
</g>
<g
   id="g895">
</g>
<g
   id="g897">
</g>
<g
   id="g899">
</g>
<g
   id="g901">
</g>
<g
   id="g903">
</g>
</svg>
