<?xml version="1.0" encoding="UTF-8" standalone="no"?>
<!-- Created with Inkscape (http://www.inkscape.org/) -->

<svg
   width="66.495934mm"
   height="81.594078mm"
   viewBox="0 0 66.495934 81.594078"
   version="1.1"
   id="svg1"
   inkscape:version="1.3.2 (091e20ef0f, 2023-11-25)"
   sodipodi:docname="bike-station-new.svg"
   xmlns:inkscape="http://www.inkscape.org/namespaces/inkscape"
   xmlns:sodipodi="http://sodipodi.sourceforge.net/DTD/sodipodi-0.dtd"
   xmlns="http://www.w3.org/2000/svg"
   xmlns:svg="http://www.w3.org/2000/svg">
  <sodipodi:namedview
     id="namedview1"
     pagecolor="#ffffff"
     bordercolor="#000000"
     borderopacity="0.25"
     inkscape:showpageshadow="2"
     inkscape:pageopacity="0.0"
     inkscape:pagecheckerboard="0"
     inkscape:deskcolor="#d1d1d1"
     inkscape:document-units="mm"
     inkscape:zoom="1.8797057"
     inkscape:cx="74.213745"
     inkscape:cy="161.72744"
     inkscape:window-width="1920"
     inkscape:window-height="952"
     inkscape:window-x="0"
     inkscape:window-y="0"
     inkscape:window-maximized="1"
     inkscape:current-layer="layer1" />
  <defs
     id="defs1">
    <inkscape:path-effect
       effect="bspline"
       id="path-effect5"
       is_visible="true"
       lpeversion="1.3"
       weight="33.333333"
       steps="2"
       helper_size="0"
       apply_no_weight="true"
       apply_with_weight="true"
       only_selected="false"
       uniform="false" />
    <inkscape:path-effect
       effect="bspline"
       id="path-effect4"
       is_visible="true"
       lpeversion="1.3"
       weight="33.333333"
       steps="2"
       helper_size="0"
       apply_no_weight="true"
       apply_with_weight="true"
       only_selected="false"
       uniform="false" />
  </defs>
  <g
     inkscape:label="Layer 1"
     inkscape:groupmode="layer"
     id="layer1"
     transform="translate(-61.937716,-89.406672)">
    <path
       id="path2"
       style="fill:#ff4630;fill-opacity:1;stroke:none;stroke-width:2.46091;stroke-miterlimit:11.1"
       d="M 95.185913,89.406672 A 33.247964,33.247964 0 0 0 61.937716,122.65441 33.247964,33.247964 0 0 0 95.185913,155.90261 33.247964,33.247964 0 0 0 128.43365,122.65441 33.247964,33.247964 0 0 0 95.185913,89.406672 Z" />
    <path
       style="fill:#ff4630;fill-opacity:1;stroke:none;stroke-width:2.769;stroke-miterlimit:11.1"
       d="m 66.798454,139.96339 c 9.462411,15.51884 18.924628,31.03736 28.387228,31.03736 9.462598,0 18.924818,-15.51853 28.387228,-31.03736"
       id="path4"
       inkscape:path-effect="#path-effect5"
       inkscape:original-d="m 66.798454,139.96339 c 9.46241,15.51884 18.924628,31.03736 28.387229,46.55651 9.462597,-15.51915 18.924817,-31.03768 28.387227,-46.55651"
       sodipodi:nodetypes="ccc" />
    <ellipse
       style="fill:#ffffff;fill-opacity:1;stroke:none;stroke-width:2.769;stroke-miterlimit:11.1"
       id="path1"
       cx="95.185684"
       cy="122.65464"
       rx="26.518745"
       ry="25.845358" />
    <path
       style="fill:#ff4630;fill-opacity:1;stroke:none;stroke-width:3.57644;stroke-miterlimit:4;stroke-dasharray:none;stroke-opacity:1"
       d="m 112.19079,111.22991 -7.14473,7.14474 -5.05786,-5.05787 7.14225,-7.14226 a 10.729359,10.729359 0 0 0 -12.200118,2.0844 10.729359,10.729359 0 0 0 -2.768494,10.35529 l -12.405109,12.40512 c -2.101539,2.10154 -2.101539,5.48526 0,7.58679 2.101542,2.10154 5.485262,2.10154 7.586802,0 L 99.7511,126.19855 a 10.729359,10.729359 0 0 0 10.35283,-2.76603 10.729359,10.729359 0 0 0 2.08686,-12.20261 z"
       id="rect1084"
       inkscape:connector-curvature="0" />
  </g>
</svg>
