<?xml version="1.0" encoding="UTF-8" standalone="no"?>
<!-- Created with Inkscape (http://www.inkscape.org/) -->

<svg
   width="66.495934mm"
   height="81.594078mm"
   viewBox="0 0 66.495934 81.594078"
   version="1.1"
   id="svg1"
   inkscape:version="1.3.2 (091e20ef0f, 2023-11-25)"
   sodipodi:docname="fitness.svg"
   xml:space="preserve"
   xmlns:inkscape="http://www.inkscape.org/namespaces/inkscape"
   xmlns:sodipodi="http://sodipodi.sourceforge.net/DTD/sodipodi-0.dtd"
   xmlns="http://www.w3.org/2000/svg"
   xmlns:svg="http://www.w3.org/2000/svg"><sodipodi:namedview
     id="namedview1"
     pagecolor="#ffffff"
     bordercolor="#000000"
     borderopacity="0.25"
     inkscape:showpageshadow="2"
     inkscape:pageopacity="0.0"
     inkscape:pagecheckerboard="0"
     inkscape:deskcolor="#d1d1d1"
     inkscape:document-units="mm"
     inkscape:zoom="1.8797057"
     inkscape:cx="51.869822"
     inkscape:cy="136.19153"
     inkscape:window-width="1920"
     inkscape:window-height="952"
     inkscape:window-x="0"
     inkscape:window-y="0"
     inkscape:window-maximized="1"
     inkscape:current-layer="layer1" /><defs
     id="defs1"><inkscape:path-effect
       effect="bspline"
       id="path-effect5"
       is_visible="true"
       lpeversion="1.3"
       weight="33.333333"
       steps="2"
       helper_size="0"
       apply_no_weight="true"
       apply_with_weight="true"
       only_selected="false"
       uniform="false" /><inkscape:path-effect
       effect="bspline"
       id="path-effect4"
       is_visible="true"
       lpeversion="1.3"
       weight="33.333333"
       steps="2"
       helper_size="0"
       apply_no_weight="true"
       apply_with_weight="true"
       only_selected="false"
       uniform="false" /></defs><g
     inkscape:label="Layer 1"
     inkscape:groupmode="layer"
     id="layer1"
     transform="translate(-61.937716,-89.406672)"><path
       id="path2"
       style="fill:#6247aa;fill-opacity:1;stroke:none;stroke-width:2.46091;stroke-miterlimit:11.1"
       d="M 95.185913,89.406672 A 33.247964,33.247964 0 0 0 61.937716,122.65441 33.247964,33.247964 0 0 0 95.185913,155.90261 33.247964,33.247964 0 0 0 128.43365,122.65441 33.247964,33.247964 0 0 0 95.185913,89.406672 Z" /><path
       style="fill:#6247aa;fill-opacity:1;stroke:none;stroke-width:2.769;stroke-miterlimit:11.1"
       d="m 66.798454,139.96339 c 9.462411,15.51884 18.924628,31.03736 28.387228,31.03736 9.462598,0 18.924818,-15.51853 28.387228,-31.03736"
       id="path4"
       inkscape:path-effect="#path-effect5"
       inkscape:original-d="m 66.798454,139.96339 c 9.46241,15.51884 18.924628,31.03736 28.387229,46.55651 9.462597,-15.51915 18.924817,-31.03768 28.387227,-46.55651"
       sodipodi:nodetypes="ccc" /><ellipse
       style="fill:#ffffff;fill-opacity:1;stroke:none;stroke-width:2.769;stroke-miterlimit:11.1"
       id="path1"
       cx="95.185684"
       cy="122.65464"
       rx="26.518745"
       ry="25.845358" /><g
       style="fill:#6247aa;fill-opacity:1"
       id="g1"
       transform="matrix(0.08826874,0,0,0.08826874,72.588886,100.05745)"><path
         d="m 467,176 a 29.94,29.94 0 0 0 -25.32,12.5 2,2 0 0 1 -3.64,-1.14 v -36.65 c 0,-20.75 -16.34,-38.21 -37.08,-38.7 A 38,38 0 0 0 362,150 v 82 a 2,2 0 0 1 -2,2 H 152 a 2,2 0 0 1 -2,-2 v -81.29 c 0,-20.75 -16.34,-38.21 -37.08,-38.7 A 38,38 0 0 0 74,150 v 37.38 A 2,2 0 0 1 70.36,188.52 29.94,29.94 0 0 0 45,176 c -16.3,0.51 -29,14.31 -29,30.62 v 98.72 c 0,16.31 12.74,30.11 29,30.62 a 29.94,29.94 0 0 0 25.32,-12.5 2,2 0 0 1 3.68,1.16 v 36.67 C 74,382 90.34,399.5 111.08,400 A 38,38 0 0 0 150,362 v -82 a 2,2 0 0 1 2,-2 h 208 a 2,2 0 0 1 2,2 v 81.29 c 0,20.75 16.34,38.21 37.08,38.7 A 38,38 0 0 0 438,362 v -37.38 a 2,2 0 0 1 3.64,-1.14 A 29.94,29.94 0 0 0 467,336 c 16.3,-0.51 29,-14.31 29,-30.62 V 206.64 C 496,190.33 483.26,176.53 467,176 Z"
         id="path1-5"
         style="fill:#6247aa;fill-opacity:1" /></g></g></svg>
