<?xml version="1.0" encoding="UTF-8" standalone="no"?>
<!-- Generator: Adobe Illustrator 19.1.0, SVG Export Plug-In . SVG Version: 6.00 Build 0)  -->

<svg
   version="1.1"
   id="Capa_1"
   x="0px"
   y="0px"
   viewBox="0 0 639.623 639.623"
   xml:space="preserve"
   sodipodi:docname="orange-toilet.svg"
   inkscape:version="1.1.1 (3bf5ae0d25, 2021-09-20)"
   width="169.23357mm"
   height="169.23357mm"
   xmlns:inkscape="http://www.inkscape.org/namespaces/inkscape"
   xmlns:sodipodi="http://sodipodi.sourceforge.net/DTD/sodipodi-0.dtd"
   xmlns="http://www.w3.org/2000/svg"
   xmlns:svg="http://www.w3.org/2000/svg"><defs
   id="defs908" /><sodipodi:namedview
   id="namedview906"
   pagecolor="#ffffff"
   bordercolor="#111111"
   borderopacity="1"
   inkscape:pageshadow="0"
   inkscape:pageopacity="0"
   inkscape:pagecheckerboard="1"
   showgrid="false"
   inkscape:zoom="0.5"
   inkscape:cx="235"
   inkscape:cy="335"
   inkscape:window-width="1920"
   inkscape:window-height="991"
   inkscape:window-x="-9"
   inkscape:window-y="-9"
   inkscape:window-maximized="1"
   inkscape:current-layer="g869"
   units="mm"
   inkscape:document-units="mm" />
<g
   id="g873">
	<g
   id="g871">
		<g
   id="g869">
			<path
   style="mix-blend-mode:multiply;fill:#ff7f00;fill-opacity:1"
   d="m 304.394,205.437 c 0,4.514 -3.644,8.187 -8.158,8.187 -4.484,0 -8.158,-3.674 -8.158,-8.187 v -44.259 h -5.315 l 0.039,138.727 c 0,6.067 -4.866,10.991 -10.982,10.991 -5.97,0 -10.864,-4.836 -10.952,-10.855 l -0.049,-0.088 v -89.475 h -4.934 v 89.387 c 0,6.097 -4.944,11.021 -11.011,11.021 -6.087,0 -11.011,-4.924 -11.011,-11.021 l 0.039,-138.482 h -5.071 v 43.985 h -0.068 l 0.068,0.352 c 0,4.543 -3.664,8.158 -8.197,8.158 -4.494,0 -8.148,-3.625 -8.148,-8.158 l 0.02,-0.352 h -0.02 v -47.522 c 0,0 -0.948,-20.39 26.76,-20.908 h 38.758 c 0,0 24.591,-0.303 26.379,20.908 v 47.522 z m -44.776,-74.732 c 10.669,0 19.316,-8.666 19.316,-19.316 0,-10.708 -8.647,-19.374 -19.316,-19.374 -10.649,0 -19.345,8.666 -19.345,19.374 -0.01,10.65 8.685,19.316 19.345,19.316 z m 107.305,2.374 c 10.591,0 19.208,-8.617 19.208,-19.247 0,-10.591 -8.608,-19.218 -19.208,-19.218 -10.591,0 -19.277,8.617 -19.277,19.218 0.011,10.64 8.687,19.247 19.277,19.247 z m 10.533,6.234 h -22.96 c -27.659,0.489 -34.45,20.781 -34.45,20.781 l -15.652,47.346 h 0.039 l -0.039,0.322 c 0,4.494 3.654,8.178 8.129,8.178 4.485,0 8.109,-3.674 8.109,-8.178 l -0.02,-0.322 h 0.02 l 15.642,-43.809 h 5.081 l -24.738,74.937 h 24.728 l -0.029,62.988 c 0,6.009 4.895,10.913 10.972,10.913 6.067,0 11.011,-4.905 11.011,-10.913 l -0.078,-62.959 h 4.944 v 63.037 l 0.078,0.059 c 0.068,5.989 4.895,10.776 10.904,10.776 6.018,0 10.884,-4.866 10.884,-10.894 l -0.02,-62.979 h 24.846 l -24.846,-75.191 h 5.266 l 15.632,44.024 v 0.059 c 0,4.475 3.605,8.139 8.109,8.139 4.484,0 8.129,-3.654 8.129,-8.139 v -0.059 l -15.632,-47.336 c -1.769,-21.054 -34.059,-20.78 -34.059,-20.78 z m 143.865,62.138 c 0,111.321 -201.471,438.172 -201.471,438.172 0,0 -201.548,-326.86 -201.548,-438.172 C 118.302,90.208 208.51,0 319.851,0 c 111.272,-0.01 201.47,90.198 201.47,201.451 z m -45.597,-0.01 c 0,-85.968 -69.945,-155.893 -155.883,-155.893 -86.017,0 -155.961,69.935 -155.961,155.893 0,85.997 69.945,155.912 155.961,155.912 85.948,10e-4 155.883,-69.915 155.883,-155.912 z"
   id="path867" />
		</g>
	</g>
</g>
<g
   id="g875">
</g>
<g
   id="g877">
</g>
<g
   id="g879">
</g>
<g
   id="g881">
</g>
<g
   id="g883">
</g>
<g
   id="g885">
</g>
<g
   id="g887">
</g>
<g
   id="g889">
</g>
<g
   id="g891">
</g>
<g
   id="g893">
</g>
<g
   id="g895">
</g>
<g
   id="g897">
</g>
<g
   id="g899">
</g>
<g
   id="g901">
</g>
<g
   id="g903">
</g>
</svg>
