<?xml version="1.0" encoding="UTF-8" standalone="no"?>
<!-- Generator: Adobe Illustrator 19.1.0, SVG Export Plug-In . SVG Version: 6.00 Build 0)  -->

<svg
   version="1.1"
   id="Capa_1"
   x="0px"
   y="0px"
   viewBox="0 0 639.623 639.623"
   style="enable-background:new 0 0 639.623 639.623;"
   xml:space="preserve"
   sodipodi:docname="tabletennis.svg"
   inkscape:version="1.3.2 (091e20ef0f, 2023-11-25)"
   xmlns:inkscape="http://www.inkscape.org/namespaces/inkscape"
   xmlns:sodipodi="http://sodipodi.sourceforge.net/DTD/sodipodi-0.dtd"
   xmlns="http://www.w3.org/2000/svg"
   xmlns:svg="http://www.w3.org/2000/svg"><defs
   id="defs908" /><sodipodi:namedview
   id="namedview906"
   pagecolor="#ffffff"
   bordercolor="#111111"
   borderopacity="1"
   inkscape:pageshadow="0"
   inkscape:pageopacity="0"
   inkscape:pagecheckerboard="1"
   showgrid="false"
   inkscape:zoom="1"
   inkscape:cx="306.5"
   inkscape:cy="437"
   inkscape:window-width="1920"
   inkscape:window-height="952"
   inkscape:window-x="0"
   inkscape:window-y="0"
   inkscape:window-maximized="1"
   inkscape:current-layer="g869"
   inkscape:snap-smooth-nodes="true"
   inkscape:snap-intersection-paths="true"
   inkscape:snap-object-midpoints="true"
   inkscape:showpageshadow="2"
   inkscape:deskcolor="#d1d1d1" />
<g
   id="g873">
	<g
   id="g871">
		<g
   id="g869">
			<path
   style="mix-blend-mode:multiply;fill:#000000;fill-opacity:1"
   d="m 521.321,201.451 c 0,111.321 -201.471,438.172 -201.471,438.172 0,0 -201.548,-326.86 -201.548,-438.172 C 118.302,90.208 208.51,0 319.851,0 c 111.272,-0.01 201.47,90.198 201.47,201.451 z m -45.597,-0.01 c 0,-85.968 -69.945,-155.893 -155.883,-155.893 -86.017,0 -155.961,69.935 -155.961,155.893 0,85.997 69.945,155.912 155.961,155.912 85.948,10e-4 155.883,-69.915 155.883,-155.912 z"
   id="path867"
   sodipodi:nodetypes="scscsssscs" />
		<g
   id="g1"
   transform="matrix(4.0133543,0,0,4.0133543,203.47428,79.054199)"><path
     style="fill:#cbb292"
     d="m 10.39,23.151 c -0.167,2.943 0.41,5.903 1.767,8.819 0.83,1.782 1.141,3.785 0.667,5.693 -0.786,3.165 -2.687,5.7 -6.161,7.757 -1.371,0.812 -2.72,1.664 -3.983,2.635 L 1.089,49.279 C 0.163,49.991 0.075,51.354 0.901,52.18 l 5.229,5.229 c 0.835,0.835 2.215,0.734 2.92,-0.213 l 1.646,-2.213 c 0.862,-1.158 1.633,-2.385 2.353,-3.636 1.994,-3.463 4.414,-5.368 7.478,-6.204 1.879,-0.513 3.866,-0.233 5.654,0.54 2.741,1.186 5.522,1.699 8.29,1.549 0.195,-0.011 0.286,-0.255 0.148,-0.393 L 10.784,23.004 c -0.138,-0.138 -0.383,-0.048 -0.394,0.147 z"
     id="path1" /><circle
     style="fill:#ecf0f1"
     cx="18.003"
     cy="9.8929996"
     r="9"
     id="circle1" /><path
     style="fill:#ffffff"
     d="m 13.003,10.893 c -0.553,0 -1,-0.447 -1,-1 0,-3.309 2.691,-6 6,-6 0.553,0 1,0.447 1,1 0,0.553 -0.447,1 -1,1 -2.206,0 -4,1.794 -4,4 0,0.552 -0.448,1 -1,1 z"
     id="path2" /><g
     id="g3">
	<path
   style="fill:#e64c3c"
   d="M 52.004,5.634 C 45.078,-1.292 33.672,-1.634 24.356,3.518 c 0.004,0.004 0.008,0.007 0.011,0.01 3.515,3.515 3.515,9.213 0,12.728 -3.392,3.392 -8.813,3.5 -12.347,0.345 -0.948,2.133 -1.469,4.302 -1.603,6.479 0.061,-0.139 0.249,-0.195 0.367,-0.076 l 23.834,23.834 c 0.126,0.127 0.056,0.334 -0.106,0.378 5.056,-0.285 10.064,-2.768 14.701,-7.405 9.823,-9.823 11.458,-25.51 2.791,-34.177 z"
   id="path3" />
</g></g></g>
	</g>
</g>
<g
   id="g875">
</g>
<g
   id="g877">
</g>
<g
   id="g879">
</g>
<g
   id="g881">
</g>
<g
   id="g883">
</g>
<g
   id="g885">
</g>
<g
   id="g887">
</g>
<g
   id="g889">
</g>
<g
   id="g891">
</g>
<g
   id="g893">
</g>
<g
   id="g895">
</g>
<g
   id="g897">
</g>
<g
   id="g899">
</g>
<g
   id="g901">
</g>
<g
   id="g903">
</g>
</svg>
