<?xml version="1.0" encoding="UTF-8" standalone="no"?>
<!-- Created with Inkscape (http://www.inkscape.org/) -->

<svg
   width="66.495934mm"
   height="81.594078mm"
   viewBox="0 0 66.495934 81.594078"
   version="1.1"
   id="svg1"
   inkscape:version="1.3.2 (091e20ef0f, 2023-11-25)"
   sodipodi:docname="table-tennis-new.svg"
   xml:space="preserve"
   xmlns:inkscape="http://www.inkscape.org/namespaces/inkscape"
   xmlns:sodipodi="http://sodipodi.sourceforge.net/DTD/sodipodi-0.dtd"
   xmlns="http://www.w3.org/2000/svg"
   xmlns:svg="http://www.w3.org/2000/svg"><sodipodi:namedview
     id="namedview1"
     pagecolor="#ffffff"
     bordercolor="#000000"
     borderopacity="0.25"
     inkscape:showpageshadow="2"
     inkscape:pageopacity="0.0"
     inkscape:pagecheckerboard="0"
     inkscape:deskcolor="#d1d1d1"
     inkscape:document-units="mm"
     inkscape:zoom="2.6583053"
     inkscape:cx="119.06082"
     inkscape:cy="172.29022"
     inkscape:window-width="1920"
     inkscape:window-height="952"
     inkscape:window-x="0"
     inkscape:window-y="0"
     inkscape:window-maximized="1"
     inkscape:current-layer="layer1" /><defs
     id="defs1"><inkscape:path-effect
       effect="bspline"
       id="path-effect5"
       is_visible="true"
       lpeversion="1.3"
       weight="33.333333"
       steps="2"
       helper_size="0"
       apply_no_weight="true"
       apply_with_weight="true"
       only_selected="false"
       uniform="false" /><inkscape:path-effect
       effect="bspline"
       id="path-effect4"
       is_visible="true"
       lpeversion="1.3"
       weight="33.333333"
       steps="2"
       helper_size="0"
       apply_no_weight="true"
       apply_with_weight="true"
       only_selected="false"
       uniform="false" /></defs><g
     inkscape:label="Layer 1"
     inkscape:groupmode="layer"
     id="layer1"
     transform="translate(-61.937716,-89.406672)"><path
       id="path2"
       style="fill:#59bdff;fill-opacity:1;stroke:none;stroke-width:2.46091;stroke-miterlimit:11.1"
       d="M 95.185913,89.406672 A 33.247964,33.247964 0 0 0 61.937716,122.65441 33.247964,33.247964 0 0 0 95.185913,155.90261 33.247964,33.247964 0 0 0 128.43365,122.65441 33.247964,33.247964 0 0 0 95.185913,89.406672 Z" /><path
       style="fill:#59bdff;fill-opacity:1;stroke:none;stroke-width:2.769;stroke-miterlimit:11.1"
       d="m 66.798454,139.96339 c 9.462411,15.51884 18.924628,31.03736 28.387228,31.03736 9.462598,0 18.924818,-15.51853 28.387228,-31.03736"
       id="path4"
       inkscape:path-effect="#path-effect5"
       inkscape:original-d="m 66.798454,139.96339 c 9.46241,15.51884 18.924628,31.03736 28.387229,46.55651 9.462597,-15.51915 18.924817,-31.03768 28.387227,-46.55651"
       sodipodi:nodetypes="ccc" /><ellipse
       style="fill:#ffffff;fill-opacity:1;stroke:none;stroke-width:2.769;stroke-miterlimit:11.1"
       id="path1"
       cx="95.185684"
       cy="122.65464"
       rx="26.518745"
       ry="25.845358" /><g
       id="g1"
       transform="matrix(0.07349046,0,0,0.07349046,76.372146,103.84109)">
	<path
   class="st0"
   d="m 502.079,430.441 -80.346,-80.338 c -3.205,-3.228 -5.027,-6.135 -6.232,-9.147 -1.044,-2.642 -1.614,-5.436 -1.767,-8.761 -0.128,-2.883 0.096,-6.152 0.667,-9.797 0.988,-6.401 3.076,-13.902 5.718,-22.277 3.951,-12.592 9.123,-27.128 12.921,-43.542 3.782,-16.407 6.168,-34.789 4.328,-54.93 -0.995,-10.906 -4.047,-21.409 -8.102,-31.319 -6.112,-14.857 -14.536,-28.421 -22.735,-39.72 -4.095,-5.645 -8.151,-10.712 -11.86,-15.058 -3.71,-4.344 -7.067,-7.958 -9.854,-10.736 -0.892,-0.892 -2.28,-2.386 -3.975,-4.256 -2.545,-2.811 -5.822,-6.513 -9.717,-10.761 -3.911,-4.24 -8.448,-9.066 -13.588,-14.206 C 345.716,63.772 330.691,50.232 312.566,37.761 294.441,25.305 273.176,13.893 248.908,6.505 227.948,0.121 207.406,-1.172 188.229,0.932 159.415,4.088 133.685,14.712 112.532,26.991 91.361,39.311 74.753,53.3 64.025,64.02 c -7.164,7.163 -15.74,16.921 -24.341,28.911 -12.873,17.98 -25.811,40.955 -33.319,67.561 -3.742,13.29 -6.119,27.504 -6.344,42.362 -0.225,14.848 1.702,30.339 6.488,46.039 7.389,24.276 18.792,45.542 31.256,63.674 12.463,18.118 26.003,33.151 37.824,44.972 6.858,6.85 13.138,12.632 18.262,17.258 2.562,2.322 4.834,4.345 6.705,6.048 1.872,1.686 3.365,3.075 4.265,3.975 3.702,3.702 8.898,8.448 15.314,13.66 9.621,7.806 21.932,16.624 35.809,23.996 6.946,3.686 14.278,7.019 21.923,9.629 7.654,2.618 15.611,4.521 23.787,5.268 20.044,1.823 38.338,-0.522 54.689,-4.28 12.271,-2.819 23.481,-6.417 33.632,-9.709 7.605,-2.465 14.616,-4.746 20.944,-6.456 4.754,-1.286 9.107,-2.224 13.018,-2.755 2.931,-0.386 5.598,-0.538 8.006,-0.45 3.63,0.145 6.634,0.763 9.476,1.96 2.843,1.213 5.622,3.003 8.681,6.055 L 440.363,512 511.996,440.367 Z M 156.666,302.819 c -25.834,0 -46.77,-20.936 -46.77,-46.77 0,-25.834 20.936,-46.77 46.77,-46.77 25.834,0 46.77,20.936 46.77,46.77 0,25.834 -20.935,46.77 -46.77,46.77 z m 283.705,169.493 -70.429,-70.428 c -5.597,-5.606 -11.926,-9.829 -18.639,-12.472 -5.87,-2.337 -11.941,-3.453 -17.868,-3.71 -5.204,-0.225 -10.328,0.185 -15.371,0.972 -8.842,1.38 -17.522,3.903 -26.372,6.681 -13.267,4.176 -26.935,9.01 -41.422,12.335 -9.428,2.176 -19.177,3.71 -29.352,4.119 L 409.814,220.921 c -0.402,10.095 -1.919,19.772 -4.072,29.144 -2.481,10.8 -5.79,21.177 -9.05,31.247 -2.441,7.556 -4.875,14.952 -6.866,22.301 -1.478,5.525 -2.723,11.026 -3.469,16.623 -0.554,4.184 -0.835,8.416 -0.674,12.72 0.224,6.425 1.461,13.026 4.144,19.362 2.658,6.329 6.738,12.319 12.062,17.619 l 70.428,70.429 z"
   id="path1-3"
   style="fill:#59bdff;fill-opacity:1" />
</g></g><style
     type="text/css"
     id="style1">
	.st0{fill:#000000;}
</style></svg>
