<?xml version="1.0" encoding="UTF-8" standalone="no"?>
<!-- Generator: Adobe Illustrator 19.1.0, SVG Export Plug-In . SVG Version: 6.00 Build 0)  -->

<svg
   version="1.1"
   id="Capa_1"
   x="0px"
   y="0px"
   viewBox="0 0 639.623 639.623"
   style="enable-background:new 0 0 639.623 639.623;"
   xml:space="preserve"
   sodipodi:docname="water.svg"
   inkscape:version="1.1.1 (3bf5ae0d25, 2021-09-20)"
   xmlns:inkscape="http://www.inkscape.org/namespaces/inkscape"
   xmlns:sodipodi="http://sodipodi.sourceforge.net/DTD/sodipodi-0.dtd"
   xmlns="http://www.w3.org/2000/svg"
   xmlns:svg="http://www.w3.org/2000/svg"><defs
   id="defs908" /><sodipodi:namedview
   id="namedview906"
   pagecolor="#ffffff"
   bordercolor="#111111"
   borderopacity="1"
   inkscape:pageshadow="0"
   inkscape:pageopacity="0"
   inkscape:pagecheckerboard="1"
   showgrid="false"
   inkscape:zoom="1"
   inkscape:cx="230.5"
   inkscape:cy="320.5"
   inkscape:window-width="1920"
   inkscape:window-height="991"
   inkscape:window-x="-9"
   inkscape:window-y="-9"
   inkscape:window-maximized="1"
   inkscape:current-layer="g869"
   inkscape:snap-smooth-nodes="true"
   inkscape:snap-intersection-paths="true"
   inkscape:snap-object-midpoints="true" />
<g
   id="g873">
	<g
   id="g871">
		<g
   id="g869">
			<path
   style="mix-blend-mode:multiply;fill:#000000;fill-opacity:1"
   d="m 521.321,201.451 c 0,111.321 -201.471,438.172 -201.471,438.172 0,0 -201.548,-326.86 -201.548,-438.172 C 118.302,90.208 208.51,0 319.851,0 c 111.272,-0.01 201.47,90.198 201.47,201.451 z m -45.597,-0.01 c 0,-85.968 -69.945,-155.893 -155.883,-155.893 -86.017,0 -155.961,69.935 -155.961,155.893 0,85.997 69.945,155.912 155.961,155.912 85.948,10e-4 155.883,-69.915 155.883,-155.912 z"
   id="path867"
   sodipodi:nodetypes="scscsssscs" />
		<path
   id="path861"
   style="fill:#007fff;fill-opacity:1;stroke:none;stroke-width:7.55906;stroke-linecap:round;stroke-linejoin:round"
   d="m 251.46762,201.43725 a 78.916656,78.916656 0 0 0 17.61713,99.91154 78.916656,78.916656 0 0 0 101.45285,-1.8e-4 78.916656,78.916656 0 0 0 17.61792,-99.91179 L 365.37433,161.97835 319.81194,83.061407 274.24906,161.97864 Z" /></g>
	</g>
</g>
<g
   id="g875">
</g>
<g
   id="g877">
</g>
<g
   id="g879">
</g>
<g
   id="g881">
</g>
<g
   id="g883">
</g>
<g
   id="g885">
</g>
<g
   id="g887">
</g>
<g
   id="g889">
</g>
<g
   id="g891">
</g>
<g
   id="g893">
</g>
<g
   id="g895">
</g>
<g
   id="g897">
</g>
<g
   id="g899">
</g>
<g
   id="g901">
</g>
<g
   id="g903">
</g>
</svg>
